<?xml version="1.0" standalone="no"?><!DOCTYPE svg PUBLIC "-//W3C//DTD SVG 1.1//EN" "http://www.w3.org/Graphics/SVG/1.1/DTD/svg11.dtd"><svg t="1782728065575" class="icon" viewBox="0 0 1024 1024" version="1.1" xmlns="http://www.w3.org/2000/svg" p-id="57444" xmlns:xlink="http://www.w3.org/1999/xlink" width="256" height="256"><path d="M512.241 0.307C230.283 0.307 1.37 229.226 1.37 511.185c0 281.958 228.913 510.871 510.871 510.871s510.878-228.913 510.878-510.871S794.2 0.307 512.241 0.307z m0 21.745c269.965 0 489.133 219.168 489.133 489.133 0 269.957-219.168 489.133-489.133 489.133-269.957 0-489.133-219.176-489.133-489.133 0-269.965 219.176-489.133 489.133-489.133z" fill="#FAA116" p-id="57445"></path><path d="M91.566 354.082c32.384-87.098 90.902-161.524 166.006-213.735a10.88 10.88 0 0 0-12.412-17.852c-78.705 54.722-140.034 132.729-173.97 224.008a10.873 10.873 0 0 0 20.376 7.58zM305.23 110.083a447.905 447.905 0 0 1 92.61-35.592 10.866 10.866 0 1 0-5.505-21.028 469.749 469.749 0 0 0-97.103 37.314 10.88 10.88 0 0 0-4.657 14.65 10.88 10.88 0 0 0 14.655 4.656z" fill="#FAA116" p-id="57446"></path><path d="M494.403 538.076c190.777 0 176.304-96.725 309.294 0 48.956 35.605 170.753-91.214 170.753-26.891 0 255.1-207.109 462.209-462.209 462.209S50.033 766.284 50.033 511.184c0-105.347 65.633-14.811 136.413-82.422C327.1 294.422 344.651 538.076 494.403 538.076z" fill="#FAA116" fill-opacity=".3" p-id="57447"></path><path d="M415.477 540.835l11.107-41.384a2749.564 2749.564 0 0 0 31.796-123.63h2.022c11.108 40.875 21.198 84.294 32.807 123.63l11.108 41.384h-88.84z m131.241 155.687h78.242l-120.141-377.83h-87.83l-119.625 377.83h75.711l26.252-97.025h121.145l26.246 97.025z m111.25 0.007h62.706V453.084H657.97V696.53z m31.784-282.63c21.478 0 37.373-14.774 37.373-34.758 0-20.858-15.895-34.764-37.373-34.764-21.908 0-37.803 13.906-37.803 34.764 0 19.984 15.895 34.757 37.803 34.757zM820.388 263.044a15.92 15.92 0 1 0 31.84 0 15.92 15.92 0 1 0-31.84 0zM692.557 200.195a31.02 31.02 0 0 0-31.007 31.007 31.02 31.02 0 0 0 31.007 31.007 31.02 31.02 0 0 0 31.007-31.007 31.02 31.02 0 0 0-31.007-31.007z m0 10.873a20.14 20.14 0 0 1 0 40.275 20.154 20.154 0 0 1-20.141-20.14 20.147 20.147 0 0 1 20.14-20.135z m181.809 128.828a43.523 43.523 0 0 0-43.498 43.497 43.517 43.517 0 0 0 43.498 43.498 43.517 43.517 0 0 0 43.497-43.498 43.517 43.517 0 0 0-43.497-43.497z m0 10.873a32.644 32.644 0 0 1 32.63 32.624 32.65 32.65 0 0 1-32.63 32.631 32.644 32.644 0 0 1-32.625-32.63 32.644 32.644 0 0 1 32.625-32.625z m-99.83-155.08h-8.564a3.679 3.679 0 1 0 0 7.35h8.563v8.564a3.679 3.679 0 1 0 7.357 0v-8.564h8.564a3.672 3.672 0 1 0 0-7.35h-8.564v-8.564a3.672 3.672 0 1 0-7.357 0v8.563z m-7.52 99.497h-8.565a3.685 3.685 0 0 0 0 7.357h8.564v8.564a3.685 3.685 0 0 0 7.357 0v-8.564h8.564a3.685 3.685 0 0 0 0-7.357h-8.564v-8.564a3.685 3.685 0 0 0-7.357 0v8.564z" fill="#FAA116" p-id="57448"></path></svg>